<svg width="793" height="793" viewBox="0 0 793 793" fill="none" xmlns="http://www.w3.org/2000/svg">
<path d="M395.624 14L319.233 90.3313L605.167 376.04C610.378 381.247 613.301 388.317 613.306 395.677C613.3 403.049 610.369 410.116 605.166 415.314L472.022 548.353L548.418 624.689L699.752 473.474C742.749 430.511 742.75 360.853 699.752 317.889L395.624 14Z" fill="context-fill #20123a    "/>
<path d="M449.62 395.173C449.62 424.958 425.467 449.104 395.674 449.104C365.88 449.104 341.727 424.958 341.727 395.173C341.727 365.388 365.88 341.242 395.674 341.242C425.467 341.242 449.62 365.388 449.62 395.173Z" fill="context-fill #20123a" />
<path d="M396.376 777L472.767 700.669L186.833 414.96C181.622 409.753 178.699 402.683 178.694 395.323C178.7 387.951 181.631 380.884 186.834 375.686L319.978 242.647L243.582 166.311L92.248 317.526C49.2513 360.489 49.2501 430.148 92.2478 473.111L396.376 777Z" fill="context-fill #20123a" />
<defs>
    <linearGradient id="flowfox-gradient" x1="359.438" y1="0.929315" x2="299.091" y2="761.001" gradientUnits="userSpaceOnUse">
        <stop stop-color="#FFA348"/>
        <stop offset="0.2" stop-color="#FA8E3B"/>
        <stop offset="0.4" stop-color="#F47831"/>
        <stop offset="0.6" stop-color="#EE602A"/>
        <stop offset="0.8" stop-color="#E74426"/>
        <stop offset="1" stop-color="#E01B24"/>
    </linearGradient>
</defs>
</svg>