<svg width="1267" height="298" viewBox="0 0 1267 298" fill="none" xmlns="http://www.w3.org/2000/svg">
  <path d="M0.818184 293V13.7273H168.273V43.7273H34.6364V138.091H155.727V168.091H34.6364V293H0.818184ZM238.651 13.7273V293H206.47V13.7273H238.651ZM367.325 297.364C348.416 297.364 331.825 292.864 317.553 283.864C303.371 274.864 292.28 262.273 284.28 246.091C276.371 229.909 272.416 211 272.416 189.364C272.416 167.545 276.371 148.5 284.28 132.227C292.28 115.955 303.371 103.318 317.553 94.3182C331.825 85.3182 348.416 80.8182 367.325 80.8182C386.235 80.8182 402.78 85.3182 416.962 94.3182C431.235 103.318 442.325 115.955 450.235 132.227C458.235 148.5 462.235 167.545 462.235 189.364C462.235 211 458.235 229.909 450.235 246.091C442.325 262.273 431.235 274.864 416.962 283.864C402.78 292.864 386.235 297.364 367.325 297.364ZM367.325 268.455C381.689 268.455 393.507 264.773 402.78 257.409C412.053 250.045 418.916 240.364 423.371 228.364C427.825 216.364 430.053 203.364 430.053 189.364C430.053 175.364 427.825 162.318 423.371 150.227C418.916 138.136 412.053 128.364 402.78 120.909C393.507 113.455 381.689 109.727 367.325 109.727C352.962 109.727 341.144 113.455 331.871 120.909C322.598 128.364 315.735 138.136 311.28 150.227C306.825 162.318 304.598 175.364 304.598 189.364C304.598 203.364 306.825 216.364 311.28 228.364C315.735 240.364 322.598 250.045 331.871 257.409C341.144 264.773 352.962 268.455 367.325 268.455ZM536.329 293L472.511 83.5454H506.329L551.602 243.909H553.784L598.511 83.5454H632.875L677.056 243.364H679.238L724.511 83.5454H758.329L694.511 293H662.875L617.056 132.091H613.784L567.965 293H536.329ZM878.787 83.5454V110.818H765.878V83.5454H878.787ZM799.696 293V54.6364C799.696 42.6364 802.515 32.6363 808.151 24.6363C813.787 16.6363 821.105 10.6363 830.105 6.63634C839.105 2.63634 848.605 0.636345 858.605 0.636345C866.515 0.636345 872.969 1.27271 877.969 2.54545C882.969 3.81817 886.696 4.99998 889.151 6.0909L879.878 33.9091C878.242 33.3636 875.969 32.6818 873.06 31.8636C870.242 31.0454 866.515 30.6363 861.878 30.6363C851.242 30.6363 843.56 33.3182 838.833 38.6818C834.196 44.0454 831.878 51.9091 831.878 62.2727V293H799.696ZM984.995 297.364C966.086 297.364 949.495 292.864 935.223 283.864C921.041 274.864 909.95 262.273 901.95 246.091C894.041 229.909 890.086 211 890.086 189.364C890.086 167.545 894.041 148.5 901.95 132.227C909.95 115.955 921.041 103.318 935.223 94.3182C949.495 85.3182 966.086 80.8182 984.995 80.8182C1003.9 80.8182 1020.45 85.3182 1034.63 94.3182C1048.9 103.318 1060 115.955 1067.9 132.227C1075.9 148.5 1079.9 167.545 1079.9 189.364C1079.9 211 1075.9 229.909 1067.9 246.091C1060 262.273 1048.9 274.864 1034.63 283.864C1020.45 292.864 1003.9 297.364 984.995 297.364ZM984.995 268.455C999.359 268.455 1011.18 264.773 1020.45 257.409C1029.72 250.045 1036.59 240.364 1041.04 228.364C1045.5 216.364 1047.72 203.364 1047.72 189.364C1047.72 175.364 1045.5 162.318 1041.04 150.227C1036.59 138.136 1029.72 128.364 1020.45 120.909C1011.18 113.455 999.359 109.727 984.995 109.727C970.632 109.727 958.814 113.455 949.541 120.909C940.268 128.364 933.405 138.136 928.95 150.227C924.495 162.318 922.268 175.364 922.268 189.364C922.268 203.364 924.495 216.364 928.95 228.364C933.405 240.364 940.268 250.045 949.541 257.409C958.814 264.773 970.632 268.455 984.995 268.455ZM1129.04 83.5454L1179.23 169.182L1229.41 83.5454H1266.5L1198.86 188.273L1266.5 293H1229.41L1179.23 211.727L1129.04 293H1091.95L1158.5 188.273L1091.95 83.5454H1129.04Z" fill="white"/>
</svg>
