<svg xmlns="http://www.w3.org/2000/svg" width="799" height="289">
  <path fill="context-fill #20123a" d="M165.545 74.5454C163.909 60.7273 157.273 50 145.636 42.3636C134 34.7273 119.727 30.9091 102.818 30.9091C90.4546 30.9091 79.6364 32.9091 70.3636 36.9091C61.1818 40.9091 54 46.4091 48.8182 53.4091C43.7273 60.4091 41.1818 68.3636 41.1818 77.2727C41.1818 84.7273 42.9545 91.1364 46.5 96.5C50.1364 101.773 54.7727 106.182 60.4091 109.727C66.0455 113.182 71.9545 116.045 78.1364 118.318C84.3182 120.5 90 122.273 95.1818 123.636L123.545 131.273C130.818 133.182 138.909 135.818 147.818 139.182C156.818 142.545 165.409 147.136 173.591 152.955C181.864 158.682 188.682 166.045 194.045 175.045C199.409 184.045 202.091 195.091 202.091 208.182C202.091 223.273 198.136 236.909 190.227 249.091C182.409 261.273 170.955 270.955 155.864 278.136C140.864 285.318 122.636 288.909 101.182 288.909C81.1818 288.909 63.8636 285.682 49.2273 279.227C34.6818 272.773 23.2273 263.773 14.8636 252.227C6.59091 240.682 1.90909 227.273 0.818182 212H35.7273C36.6364 222.545 40.1818 231.273 46.3636 238.182C52.6364 245 60.5455 250.091 70.0909 253.455C79.7273 256.727 90.0909 258.364 101.182 258.364C114.091 258.364 125.682 256.273 135.955 252.091C146.227 247.818 154.364 241.909 160.364 234.364C166.364 226.727 169.364 217.818 169.364 207.636C169.364 198.364 166.773 190.818 161.591 185C156.409 179.182 149.591 174.455 141.136 170.818C132.682 167.182 123.545 164 113.727 161.273L79.3636 151.455C57.5455 145.182 40.2727 136.227 27.5455 124.591C14.8182 112.955 8.45455 97.7273 8.45455 78.9091C8.45455 63.2727 12.6818 49.6364 21.1364 38C29.6818 26.2727 41.1364 17.1818 55.5 10.7273C69.9545 4.18181 86.0909 0.909081 103.909 0.909081C121.909 0.909081 137.909 4.13635 151.909 10.5909C165.909 16.9545 177 25.6818 185.182 36.7727C193.455 47.8636 197.818 60.4545 198.273 74.5454H165.545ZM329.06 74.5454V101.818H220.515V74.5454H329.06ZM252.151 24.3636H284.333V224C284.333 233.091 285.651 239.909 288.288 244.455C291.015 248.909 294.47 251.909 298.651 253.455C302.924 254.909 307.424 255.636 312.151 255.636C315.697 255.636 318.606 255.455 320.879 255.091C323.151 254.636 324.97 254.273 326.333 254L332.879 282.909C330.697 283.727 327.651 284.545 323.742 285.364C319.833 286.273 314.879 286.727 308.879 286.727C299.788 286.727 290.879 284.773 282.151 280.864C273.515 276.955 266.333 271 260.606 263C254.97 255 252.151 244.909 252.151 232.727V24.3636ZM423.746 288.909C410.473 288.909 398.428 286.409 387.61 281.409C376.791 276.318 368.2 269 361.837 259.455C355.473 249.818 352.291 238.182 352.291 224.545C352.291 212.545 354.655 202.818 359.382 195.364C364.11 187.818 370.428 181.909 378.337 177.636C386.246 173.364 394.973 170.182 404.519 168.091C414.155 165.909 423.837 164.182 433.564 162.909C446.291 161.273 456.61 160.045 464.519 159.227C472.519 158.318 478.337 156.818 481.973 154.727C485.7 152.636 487.564 149 487.564 143.818V142.727C487.564 129.273 483.882 118.818 476.519 111.364C469.246 103.909 458.2 100.182 443.382 100.182C428.019 100.182 415.973 103.545 407.246 110.273C398.519 117 392.382 124.182 388.837 131.818L358.291 120.909C363.746 108.182 371.019 98.2727 380.11 91.1818C389.291 84 399.291 79 410.11 76.1818C421.019 73.2727 431.746 71.8182 442.291 71.8182C449.019 71.8182 456.746 72.6364 465.473 74.2727C474.291 75.8182 482.791 79.0454 490.973 83.9545C499.246 88.8636 506.11 96.2727 511.564 106.182C517.019 116.091 519.746 129.364 519.746 146V284H487.564V255.636H485.928C483.746 260.182 480.11 265.045 475.019 270.227C469.928 275.409 463.155 279.818 454.7 283.455C446.246 287.091 435.928 288.909 423.746 288.909ZM428.655 260C441.382 260 452.11 257.5 460.837 252.5C469.655 247.5 476.291 241.045 480.746 233.136C485.291 225.227 487.564 216.909 487.564 208.182V178.727C486.2 180.364 483.2 181.864 478.564 183.227C474.019 184.5 468.746 185.636 462.746 186.636C456.837 187.545 451.064 188.364 445.428 189.091C439.882 189.727 435.382 190.273 431.928 190.727C423.564 191.818 415.746 193.591 408.473 196.045C401.291 198.409 395.473 202 391.019 206.818C386.655 211.545 384.473 218 384.473 226.182C384.473 237.364 388.61 245.818 396.882 251.545C405.246 257.182 415.837 260 428.655 260ZM563.125 284V74.5454H594.215V106.182H596.397C600.215 95.8182 607.125 87.4091 617.125 80.9545C627.125 74.5 638.397 71.2727 650.943 71.2727C653.306 71.2727 656.261 71.3182 659.806 71.4091C663.352 71.5 666.034 71.6364 667.852 71.8182V104.545C666.761 104.273 664.261 103.864 660.352 103.318C656.534 102.682 652.488 102.364 648.215 102.364C638.034 102.364 628.943 104.5 620.943 108.773C613.034 112.955 606.761 118.773 602.125 126.227C597.579 133.591 595.306 142 595.306 151.455V284H563.125ZM794.855 74.5454V101.818H686.31V74.5454H794.855ZM717.946 24.3636H750.128V224C750.128 233.091 751.446 239.909 754.083 244.455C756.81 248.909 760.265 251.909 764.446 253.455C768.719 254.909 773.219 255.636 777.946 255.636C781.492 255.636 784.401 255.455 786.674 255.091C788.946 254.636 790.765 254.273 792.128 254L798.674 282.909C796.492 283.727 793.446 284.545 789.537 285.364C785.628 286.273 780.674 286.727 774.674 286.727C765.583 286.727 756.674 284.773 747.946 280.864C739.31 276.955 732.128 271 726.401 263C720.765 255 717.946 244.909 717.946 232.727V24.3636Z"/>
</svg>